<?xml version="1.0" standalone="no"?>
<!DOCTYPE svg PUBLIC "-//W3C//DTD SVG 20010904//EN"
 "http://www.w3.org/TR/2001/REC-SVG-20010904/DTD/svg10.dtd">
<svg version="1.0" xmlns="http://www.w3.org/2000/svg"
 width="500.000000pt" height="500.000000pt" viewBox="0 0 500.000000 500.000000"
 preserveAspectRatio="xMidYMid meet">
<metadata>
Created by potrace 1.11, written by Peter Selinger 2001-2013
</metadata>
<g transform="translate(0.000000,500.000000) scale(0.100000,-0.100000)"
fill="#000000" stroke="none">
<path d="M0 2500 l0 -2500 2500 0 2500 0 0 2500 0 2500 -2500 0 -2500 0 0
-2500z m1678 2181 c122 -27 261 -71 547 -176 607 -223 839 -284 1117 -292 189
-6 296 8 453 59 92 29 267 112 410 193 78 44 82 45 168 45 110 0 145 -14 220
-88 86 -84 97 -111 97 -232 l0 -102 -62 -64 c-119 -125 -439 -276 -744 -353
-135 -34 -302 -51 -502 -51 l-187 0 -347 -973 c-873 -2441 -793 -2226 -846
-2280 -68 -70 -85 -77 -202 -77 -116 0 -156 15 -228 84 -67 64 -82 100 -82
203 l0 87 546 1529 c300 841 542 1532 538 1537 -5 4 -43 17 -84 29 -117 34
-287 96 -510 186 -313 126 -512 184 -631 185 -96 0 -244 -73 -332 -164 -45
-46 -105 -158 -114 -211 -4 -25 0 -38 16 -54 20 -20 30 -21 241 -21 254 0 262
-2 342 -88 65 -69 78 -106 78 -216 -1 -137 -42 -206 -155 -258 -45 -20 -68
-23 -240 -26 -113 -2 -220 1 -265 8 -103 16 -244 63 -319 108 -76 44 -201 172
-235 239 -50 100 -58 150 -54 336 4 165 6 175 38 261 44 120 128 242 242 352
164 159 330 251 543 300 97 22 413 13 543 -15z"/>
</g>
</svg>
